<?xml version="1.0" standalone="no"?><!DOCTYPE svg PUBLIC "-//W3C//DTD SVG 1.1//EN" "http://www.w3.org/Graphics/SVG/1.1/DTD/svg11.dtd"><svg class="icon" width="200px" height="153.41px" viewBox="0 0 1335 1024" version="1.1" xmlns="http://www.w3.org/2000/svg"><path fill="#333333" d="M269.749217 606.068654c0-23.749624 8.18737-43.949304 25.774592-61.974018l503.079535-482.117367C816.253064 45.002537 840.815175 30.415268 870.102212 18.027965 900.601729 5.615661 927.588801 0.00325 952.200912 0.00325h293.182858A88.573598 88.573598 0 0 1 1308.745267 25.91534c17.587222 16.874733 26.987073 37.174411 26.987073 60.824037v280.470559c0 23.687125-5.874907 50.711697-18.749704 78.886251-12.912296 29.249537-26.974573 51.824179-45.761775 68.748912L768.116326 998.074948c-17.587222 16.912232-38.749386 24.799607-63.311497 24.799607a92.311038 92.311038 0 0 1-64.511479-24.799607l-344.769541-331.244756c-16.42474-16.924732-25.774592-37.174411-25.774592-60.811537m777.48769-327.80731c17.587222 16.874733 38.749386 24.749608 63.311498 24.749608s45.724276-7.874875 63.311497-24.749608 25.824591-37.174411 25.824592-60.861536-8.23737-43.949304-25.824592-60.811537-38.749386-24.799607-63.311497-24.799608-45.724276 7.874875-63.311498 24.799608-25.849591 37.211911-25.849591 60.861536c-1.149982 23.749624 8.18737 43.949304 25.824592 60.861536M25.815579 544.094636l503.079535-482.117367c17.587222-16.924732 42.211832-31.562 71.498868-43.949304C630.893499 5.615661 657.880572 0.00325 682.505182 0.00325h158.309993C816.253064 0.00325 788.053511 5.615661 758.753975 18.027965c-30.499517 12.374804-53.911646 25.91209-71.498868 43.949304l-503.129535 482.117367c-17.587222 18.024715-25.774592 38.286894-25.774592 61.974018s8.18737 43.899305 25.787092 60.811538l329.494783 317.65747a255.958448 255.958448 0 0 1-37.499406 30.449518c-10.599832 6.724894-24.66211 8.999858-41.04935 8.999858a92.298539 92.298539 0 0 1-64.511479-24.799608L25.815579 666.880192A80.798721 80.798721 0 0 1 0.015987 606.068654c0-23.749624 8.18737-43.949304 25.774592-61.974018" /></svg>