<?xml version="1.0" standalone="no"?><!DOCTYPE svg PUBLIC "-//W3C//DTD SVG 1.1//EN" "http://www.w3.org/Graphics/SVG/1.1/DTD/svg11.dtd"><svg class="icon" width="200px" height="200.00px" viewBox="0 0 1024 1024" version="1.1" xmlns="http://www.w3.org/2000/svg"><path fill="#333333" d="M85.84 85.334V938.66c0 47.148 38.134 85.341 85.235 85.341h707.153c38.65 0 59.933-23.972 59.933-68.002 0-29.444-25.209-60-59.933-60H253.659c-23.44 0-42.62-19.213-42.62-42.668 0-23.46 19.18-42.677 42.62-42.677h599.266c47.095 0 85.23-38.18 85.23-85.325V85.334C938.155 38.188 900.02 0 852.925 0H554.613v405.116c0 5.54-2.138 11.093-6.182 15.364-8.296 8.305-21.953 8.305-30.254 0-5.547-5.773-91.41-77.239-91.41-77.239s-85.864 71.466-91.418 77.239c-8.299 8.305-21.946 8.305-30.252 0-4.044-4.271-6.178-9.825-6.178-15.364V0H171.075C123.973 0 85.84 38.188 85.84 85.334m0 0" /></svg>